HIERARCHY
ROOT Hips
{
    OFFSET 0.000000 0.000000 0.000000
    CHANNELS 6 Xposition Yposition Zposition Zrotation Xrotation Yrotation
    JOINT Spine
    {
        OFFSET -0.000000 14.517291 0.000000
        CHANNELS 3 Zrotation Xrotation Yrotation
        JOINT Spine1
        {
            OFFSET -0.000000 37.558300 0.000000
            CHANNELS 3 Zrotation Xrotation Yrotation
            JOINT Neck
            {
                OFFSET -0.000000 37.404057 3.400369
                CHANNELS 3 Zrotation Xrotation Yrotation
                JOINT Head
                {
                    OFFSET -0.000000 24.785618 -3.540803
                    CHANNELS 3 Zrotation Xrotation Yrotation
                    End Site
                    {
                        OFFSET -0.000000 35.408028 0.000000
                    }
                }
            }
            JOINT LeftShoulder
            {
                OFFSET 6.992933 33.973492 -0.192664
                CHANNELS 3 Zrotation Xrotation Yrotation
                JOINT LeftArm
                {
                    OFFSET 21.527611 0.000000 0.000000
                    CHANNELS 3 Zrotation Xrotation Yrotation
                    JOINT LeftForeArm
                    {
                        OFFSET 56.353916 0.000000 0.000000
                        CHANNELS 3 Zrotation Xrotation Yrotation
                        JOINT LeftHand
                        {
                            OFFSET 47.774071 0.000000 0.000000
                            CHANNELS 3 Zrotation Xrotation Yrotation
                            End Site
                            {
                                OFFSET 26.556021 0.000000 0.000000
                            }
                        }
                    }
                }
            }
            JOINT RightShoulder
            {
                OFFSET -7.065357 33.973492 -0.192664
                CHANNELS 3 Zrotation Xrotation Yrotation
                JOINT RightArm
                {
                    OFFSET -21.527611 0.000000 0.000000
                    CHANNELS 3 Zrotation Xrotation Yrotation
                    JOINT RightForeArm
                    {
                        OFFSET -56.353916 0.000000 0.000000
                        CHANNELS 3 Zrotation Xrotation Yrotation
                        JOINT RightHand
                        {
                            OFFSET -47.774071 0.000000 0.000000
                            CHANNELS 3 Zrotation Xrotation Yrotation
                            End Site
                            {
                                OFFSET -26.556021 0.000000 0.000000
                            }
                        }
                    }
                }
            }
        }
    }
    JOINT LeftUpLeg
    {
        OFFSET 17.704014 0.000000 0.000000
        CHANNELS 3 Zrotation Xrotation Yrotation
        JOINT LeftLeg
        {
            OFFSET -0.000000 -81.181816 0.000000
            CHANNELS 3 Zrotation Xrotation Yrotation
            JOINT LeftFoot
            {
                OFFSET -0.000000 -62.821102 0.000000
                CHANNELS 3 Zrotation Xrotation Yrotation
                JOINT LeftToeBase
                {
                    OFFSET -0.000000 -11.507608 26.556021
                    CHANNELS 3 Zrotation Xrotation Yrotation
                    End Site
                    {
                        OFFSET -0.000000 0.000000 7.081605
                    }
                }
            }
        }
    }
    JOINT RightUpLeg
    {
        OFFSET -17.704014 0.000000 0.000000
        CHANNELS 3 Zrotation Xrotation Yrotation
        JOINT RightLeg
        {
            OFFSET -0.000000 -81.181816 0.000000
            CHANNELS 3 Zrotation Xrotation Yrotation
            JOINT RightFoot
            {
                OFFSET -0.000000 -62.821102 0.000000
                CHANNELS 3 Zrotation Xrotation Yrotation
                JOINT RightToeBase
                {
                    OFFSET -0.000000 -11.507608 26.556021
                    CHANNELS 3 Zrotation Xrotation Yrotation
                    End Site
                    {
                        OFFSET -0.000000 0.000000 7.081605
                    }
                }
            }
        }
    }
}
MOTION
Frames:    13
Frame Time:    0.008333
-21.779882    151.683853    -102.940239    -5.450346    -3.597121    39.287014    1.397113    -1.237502    0.223781    -5.832520    -0.095304    0.063702    12.635700    -5.727754    -5.890274    7.912769    7.028927    -8.022378    9.343498    5.524746    -22.545221    -26.173370    21.839584    -70.333900    -14.008216    -5.254701    -87.651474    18.826778    -19.091751    -3.720573    -13.896667    -7.734375    -1.473636    24.971634    -27.060671    66.654900    -9.798536    -10.593130    44.175018    -10.743220    -9.416690    29.058352    21.005482    -21.362358    -0.123969    -19.343203    47.907509    -12.810388    7.044066    -26.124485    44.177864    0.000000    0.000000    0.000000    -16.952192    -1.492407    -17.995310    2.504565    5.704063    -18.912645    13.797438    10.082096    -23.196568    0.000000    0.000000    0.000000    
-21.763176    151.709274    -103.009453    -5.380971    -3.505899    39.249657    1.379125    -1.213069    0.198097    -5.795427    -0.091362    0.055429    12.835230    -5.786168    -5.812760    7.649977    7.034503    -8.010132    9.379312    5.527221    -22.523327    -26.212532    21.910160    -70.338104    -14.174094    -5.344087    -87.665367    18.724838    -19.388094    -4.085149    -13.864889    -7.728162    -1.467827    24.987907    -27.115692    66.712517    -9.786591    -10.591757    44.111366    -10.736538    -9.427048    29.082829    20.895487    -21.338812    -0.056211    -19.290634    47.812237    -12.879307    6.987337    -26.083447    44.164024    0.000000    0.000000    0.000000    -17.034906    -1.525531    -18.172495    2.424250    5.622794    -18.893152    13.771964    10.165562    -23.068602    0.000000    0.000000    0.000000    
-21.733887    151.724167    -103.077522    -5.306126    -3.427396    39.205856    1.343115    -1.175101    0.193901    -5.645494    -0.095754    0.055897    12.680135    -5.809478    -5.818725    7.691009    7.013072    -7.982736    9.268053    5.511960    -22.551855    -26.187759    21.990774    -70.218513    -13.798669    -5.464500    -87.731949    17.714827    -19.141850    -4.151882    -14.005237    -7.704981    -1.518742    25.019844    -27.076935    66.747917    -9.862040    -10.701158    44.087166    -10.676176    -9.485679    29.005795    20.803886    -21.300665    -0.014795    -19.318895    47.712624    -12.892531    6.970082    -26.029041    44.172291    0.000000    0.000000    0.000000    -17.107592    -1.533629    -18.374731    2.326087    5.511129    -18.928837    13.732544    10.285456    -22.842655    0.000000    0.000000    0.000000    
-21.693211    151.731232    -103.152397    -5.235187    -3.347311    39.160683    1.302239    -1.137774    0.195492    -5.581365    -0.109960    0.055770    12.618082    -5.798483    -5.844073    7.786785    6.959325    -7.983934    9.319591    5.516932    -22.580666    -26.181429    22.034328    -70.227165    -13.787615    -5.490496    -87.748543    17.798830    -19.161539    -4.143431    -13.992185    -7.725739    -1.555451    25.031345    -27.055769    66.768860    -9.852407    -10.733135    44.049786    -10.715688    -9.537252    29.022854    20.719332    -21.273880    0.007610    -19.394739    47.618752    -12.865023    6.949494    -25.985929    44.181713    0.000000    0.000000    0.000000    -17.182480    -1.542390    -18.582455    2.219952    5.391753    -18.968868    13.713638    10.419446    -22.603748    0.000000    0.000000    0.000000    
-21.643467    151.726898    -103.225052    -5.171787    -3.269854    39.119835    1.254927    -1.101786    0.197038    -5.501610    -0.135982    0.055724    12.600932    -5.791855    -5.849998    7.788917    6.908408    -7.982238    9.353060    5.517673    -22.623060    -26.146605    22.098486    -70.109917    -12.814878    -5.783659    -87.515823    14.929199    -18.447493    -4.660948    -13.976498    -7.714238    -1.585096    25.030640    -27.047495    66.781998    -9.915346    -10.747928    43.987644    -10.652654    -9.519311    29.049217    20.641579    -21.258570    0.082565    -19.425032    47.566917    -12.885566    6.937996    -25.951714    44.181801    0.000000    0.000000    0.000000    -17.268656    -1.550716    -18.746695    2.141930    5.293061    -19.024384    13.705784    10.520395    -22.389233    0.000000    0.000000    0.000000    
-21.582689    151.716476    -103.301514    -5.101768    -3.200703    39.079777    1.210551    -1.044084    0.190639    -5.431176    -0.182036    0.051869    12.683681    -5.797831    -5.819035    7.630930    6.870626    -7.977782    9.374866    5.508248    -22.650574    -26.117512    22.118471    -70.063011    -12.783850    -5.765779    -87.539032    14.793857    -18.398993    -4.644463    -13.951517    -7.693427    -1.606254    24.988586    -27.040577    66.782135    -9.979902    -10.742728    43.980095    -10.557856    -9.474285    29.150908    20.573936    -21.233435    0.150218    -19.519087    47.511959    -12.863309    6.950292    -25.916618    44.188995    0.000000    0.000000    0.000000    -17.362371    -1.542838    -18.855410    2.080618    5.185590    -19.091106    13.703925    10.610349    -22.208241    0.000000    0.000000    0.000000    
-21.506796    151.695328    -103.377235    -5.034193    -3.138037    39.035458    1.171135    -0.997549    0.185582    -5.366284    -0.213062    0.049575    12.730490    -5.797810    -5.800498    7.526120    6.831707    -7.973993    9.403254    5.497057    -22.673788    -26.025555    22.154749    -70.036873    -12.737327    -5.808260    -87.576477    14.746901    -18.398899    -4.619727    -13.932063    -7.694442    -1.618618    25.002752    -27.053175    66.782509    -9.946798    -10.733092    43.966724    -10.574514    -9.478011    29.094021    20.501740    -21.207239    0.231117    -19.588182    47.483150    -12.837396    6.966640    -25.905037    44.173000    0.000000    0.000000    0.000000    -17.457047    -1.530308    -18.934387    2.018922    5.084986    -19.107306    13.730890    10.672815    -22.085110    0.000000    0.000000    0.000000    
-21.414774    151.667252    -103.460983    -4.960810    -3.066713    38.981758    1.123031    -0.945908    0.181632    -5.305964    -0.264059    0.045825    12.751482    -5.780022    -5.783217    7.464712    6.785372    -7.960249    9.433853    5.480947    -22.679914    -25.989248    22.155460    -69.995438    -12.714390    -5.752501    -87.561607    14.647555    -18.324774    -4.680500    -13.926748    -7.681828    -1.613531    25.055773    -27.093729    66.787308    -9.871337    -10.690847    43.972294    -10.598302    -9.481726    29.199146    20.411705    -21.183222    0.334558    -19.626833    47.479065    -12.851805    6.989470    -25.910303    44.163811    0.000000    0.000000    0.000000    -17.576357    -1.532457    -18.969906    1.969026    5.009634    -19.106133    13.770237    10.711330    -22.015638    0.000000    0.000000    0.000000    
-21.315336    151.633148    -103.545631    -4.895637    -2.981474    38.931007    1.074261    -0.923147    0.177967    -5.254145    -0.302019    0.042813    12.737115    -5.787756    -5.777228    7.430593    6.783436    -7.954663    9.454154    5.441745    -22.693998    -25.941145    22.142279    -69.931343    -12.745782    -5.657330    -87.557976    14.616261    -18.265871    -4.718957    -13.947299    -7.654038    -1.636126    25.072668    -27.066507    66.787613    -9.895352    -10.729632    43.962963    -10.596717    -9.506471    29.147800    20.328920    -21.174742    0.426208    -19.719549    47.466404    -12.825389    7.042382    -25.904905    44.164345    0.000000    0.000000    0.000000    -17.705158    -1.550382    -18.944147    1.931206    4.942620    -19.074097    13.832199    10.717266    -22.039484    0.000000    0.000000    0.000000    
-21.203463    151.602570    -103.629425    -4.824486    -2.905589    38.880917    1.029768    -0.891084    0.173319    -5.216897    -0.339958    0.040546    12.758970    -5.794426    -5.762945    7.352230    6.764191    -7.950239    9.462232    5.397356    -22.708015    -25.918272    22.100952    -69.842155    -12.817421    -5.510422    -87.542038    14.539659    -18.192303    -4.769051    -13.951416    -7.646139    -1.649341    25.082796    -27.036758    66.773033    -9.893024    -10.751839    43.956394    -10.592261    -9.518703    29.040094    20.244890    -21.149298    0.505631    -19.826088    47.441246    -12.791913    7.099850    -25.905306    44.173923    0.000000    0.000000    0.000000    -17.829552    -1.555419    -18.835091    1.889043    4.875049    -19.042421    13.912053    10.707985    -22.125277    0.000000    0.000000    0.000000    
-21.080938    151.567566    -103.717781    -4.761687    -2.831988    38.826256    1.027990    -0.871879    0.163808    -5.242884    -0.372437    0.035716    12.755284    -5.792753    -5.751704    7.341815    6.752074    -7.937646    9.491035    5.373552    -22.712297    -25.886425    22.046354    -69.741219    -12.861742    -5.379956    -87.535759    14.445800    -18.113043    -4.842887    -13.936574    -7.625226    -1.654047    25.150866    -27.046978    66.784470    -9.895752    -10.660071    43.946445    -10.442323    -9.386830    29.029627    20.157873    -21.133514    0.631124    -19.870445    47.452801    -12.779301    7.140517    -25.916054    44.129684    0.000000    0.000000    0.000000    -17.944891    -1.568035    -18.709805    1.841416    4.798088    -19.092136    13.969305    10.732715    -22.181971    0.000000    0.000000    0.000000    
-20.950502    151.532318    -103.800987    -4.705637    -2.753819    38.775208    1.019960    -0.867852    0.160332    -5.264290    -0.402845    0.032470    12.767208    -5.796765    -5.749149    7.297588    6.750124    -7.941422    9.503497    5.356639    -22.716923    -25.774584    22.026667    -69.671310    -12.848165    -5.338602    -87.546478    14.367195    -18.065775    -4.891191    -13.934663    -7.601605    -1.659384    25.174271    -27.039652    66.755386    -9.820699    -10.673952    43.995361    -10.597179    -9.480705    29.180098    20.072405    -21.124985    0.768100    -19.910490    47.461224    -12.732088    7.162059    -25.935249    44.050709    0.000000    0.000000    0.000000    -18.061228    -1.575052    -18.547503    1.806843    4.711987    -19.113186    14.037316    10.740066    -22.293503    0.000000    0.000000    0.000000    
-20.816017    151.493637    -103.881073    -4.650579    -2.675871    38.723011    1.010238    -0.879018    0.153358    -5.296129    -0.406403    0.030591    12.781523    -5.812435    -5.742023    7.270084    6.745610    -7.940639    9.531461    5.336451    -22.703304    -25.713331    21.958847    -69.595215    -12.850477    -5.226722    -87.527962    14.134430    -17.956177    -4.964156    -13.910837    -7.583560    -1.679480    25.148941    -26.985365    66.728149    -9.869477    -10.694409    43.986958    -10.588433    -9.481742    29.195812    19.982763    -21.124231    0.919727    -19.934319    47.498760    -12.716978    7.196009    -25.965216    43.989918    0.000000    0.000000    0.000000    -18.173983    -1.580915    -18.395325    1.764560    4.620452    -19.143084    14.102425    10.752434    -22.388706    0.000000    0.000000    0.000000    
